# xmcd
#
# Track frame offsets:
#	182
#	12812
#	24037
#	36060
#	51032
#	67735
#	81735
#	95552
#	108582
#	127185
#	144837
#	153482
#	169042
#	187880
#
# Disc length: 2672 seconds
#
# Revision: 1
# Processed by: cddbd v1.4PL0 Copyright (c) Steve Scherf et al.
# Submitted via: EasyCDDAExtractor 6.0.0.1
#
DISCID=ac0a6e0e
DTITLE=Homesick James and Snooky Pryor - Sad and Lonesome
DYEAR=1900
DGENRE=Blues
TTITLE0=Sad and Lonesome
TTITLE1=Homesick's Cross Roads
TTITLE2=It Seem Like A Dream
TTITLE3=It's All Over Now
TTITLE4=Shake Your Money Maker
TTITLE5=Some Day Baby Blues
TTITLE6=Rock Me
TTITLE7=No More Lovin'
TTITLE8=Push Me Well
TTITLE9=I Believe I Get Married
TTITLE10=Harp Boogie
TTITLE11=Last Fair Deal
TTITLE12=Telephone Blues
TTITLE13=Goin' To The Pawn Shop
EXTD=
EXTT0=
EXTT1=
EXTT2=
EXTT3=
EXTT4=
EXTT5=
EXTT6=
EXTT7=
EXTT8=
EXTT9=
EXTT10=
EXTT11=
EXTT12=
EXTT13=
PLAYORDER=
